<svg width="63" height="35" viewBox="0 0 63 35" fill="none" xmlns="http://www.w3.org/2000/svg">
<path d="M34 35H27.2142V10.2856C27.2142 9.80289 27.1192 9.35247 26.9295 8.93418C26.7554 8.51568 26.5104 8.15362 26.1939 7.84798C25.8935 7.52628 25.5376 7.27688 25.1263 7.09976C24.7149 6.92284 24.2721 6.83428 23.7976 6.83428C23.323 6.83428 22.8802 6.92284 22.469 7.09976C22.0576 7.27688 21.6937 7.52628 21.3775 7.84798C21.077 8.15362 20.8397 8.51568 20.6656 8.93418C20.4917 9.35247 20.4046 9.80289 20.4046 10.2856V35H13.5952V10.2856C13.5952 9.80289 13.5082 9.35247 13.3342 8.93418C13.1603 8.51568 12.9151 8.15362 12.5987 7.84798C12.2982 7.52628 11.9423 7.27688 11.531 7.09976C11.1198 6.92284 10.6769 6.83428 10.2024 6.83428C9.72782 6.83428 9.28492 6.92284 8.87368 7.09976C8.46241 7.27688 8.09862 7.52628 7.78226 7.84798C7.48173 8.15362 7.24446 8.51568 7.07046 8.93418C6.89648 9.35247 6.80948 9.80289 6.80948 10.2856V35H0V10.2856C0 8.85365 0.260978 7.51001 0.782954 6.25514C1.32076 4.984 2.04836 3.88178 2.96579 2.94857C3.89904 1.99925 4.98253 1.25912 6.21632 0.728149C7.46591 0.181076 8.79459 0 10.2024 0C11.4678 0 12.6857 0.14086 13.8562 0.607467C15.0267 1.05799 16.0786 1.71767 17.0118 2.58654C17.9451 1.71767 18.989 1.05798 20.1437 0.607461C21.3143 0.140854 22.5322 0.0970525 23.7976 0.0970525C25.2053 0.0970525 26.5262 0.181076 27.7598 0.728149C29.0094 1.25912 30.093 1.99925 31.0104 2.94857C31.9438 3.88178 32.6712 4.984 33.1932 6.25514C33.7311 7.51001 34 8.85365 34 10.2856V35Z" fill="white"/>
<path d="M63 24.7311C63 26.164 62.7311 27.5166 62.1934 28.7886C61.6714 30.0443 60.9438 31.1473 60.0106 32.0972C59.093 33.031 58.0096 33.7717 56.76 34.3191C55.5262 34.8506 54.7549 35 53.3471 35C52.0817 35 50.3143 34.6909 49.1438 34.24C47.9891 33.7893 46.945 33.329 46.0118 32.4595C45.0787 33.329 44.0267 33.9891 42.8562 34.4398C41.6857 34.8908 40.4617 34.6912 39.1962 34.6912C37.7885 34.6912 36.466 34.8506 35.2163 34.3191C33.9825 33.7717 32.8989 33.031 31.9657 32.0972C31.0484 31.1473 30.3207 30.0443 29.7829 28.7886C29.261 27.5166 29 26.164 29 24.7311V0H35.8094V24.7311C35.8094 25.2141 35.8964 25.6729 36.0703 26.1077C36.2445 26.5263 36.4817 26.8967 36.7822 27.2186C37.0987 27.5246 37.4623 27.7662 37.8737 27.9432C38.2849 28.1202 38.7277 28.2089 39.2023 28.2089C39.6769 28.2089 40.1197 28.1202 40.5311 27.9432C40.9423 27.7662 41.2982 27.5246 41.5987 27.2186C41.9151 26.8967 42.1603 26.5263 42.3342 26.1077C42.5082 25.6729 42.5952 25.2141 42.5952 24.7311V0H49.4048V24.7311C49.4048 25.2141 49.4918 25.6729 49.6658 26.1077C49.8397 26.5263 50.077 26.8967 50.3774 27.2186C50.6939 27.5246 51.0577 27.7662 51.4689 27.9432C51.8801 28.1202 52.3231 28.2089 52.7977 28.2089C53.2721 28.2089 53.7151 28.1202 54.1263 27.9432C54.5375 27.7662 54.8934 27.5246 55.1941 27.2186C55.5104 26.8967 55.7555 26.5263 55.9295 26.1077C56.1194 25.6729 56.2143 25.2141 56.2143 24.7311V0H63V24.7311Z" fill="white"/>
<path d="M35.8047 0.00431958L10 0V3.9913L34.3362 4L35.8047 1.99997V0.00431958Z" fill="white"/>
<path d="M53 31H30V35H53V31Z" fill="white"/>
</svg>
